HIERARCHY
ROOT hip
{
  OFFSET 0.0 0.0 0.0
  CHANNELS 6 Xposition Yposition Zposition Zrotation Yrotation Xrotation
  JOINT abdomen
  {
    OFFSET 0.0 20.6881 -0.73152
    CHANNELS 3 Zrotation Xrotation Yrotation
    JOINT chest
    {
      OFFSET 0.0 11.7043 -0.48768
      CHANNELS 3 Zrotation Xrotation Yrotation
      JOINT neck
      {
        OFFSET 0.0 22.1894 -2.19456
        CHANNELS 3 Zrotation Xrotation Yrotation
        JOINT head
        {
          OFFSET -0.24384 7.07133 1.2192
          CHANNELS 3 Zrotation Xrotation Yrotation
          JOINT leftEye
          {
            OFFSET 4.14528 8.04674 8.04672
            CHANNELS 3 Zrotation Xrotation Yrotation
            End Site
            {
              OFFSET 1.0 0.0 0.0
            }
          }
          JOINT rightEye
          {
            OFFSET -3.6576 8.04674 8.04672
            CHANNELS 3 Zrotation Xrotation Yrotation
            End Site
            {
              OFFSET 1.0 0.0 0.0
            }
          }
        }
      }
      JOINT rCollar
      {
        OFFSET -2.68224 19.2634 -4.8768
        CHANNELS 3 Zrotation Xrotation Yrotation
        JOINT rShldr
        {
          OFFSET -8.77824 -1.95073 1.46304
          CHANNELS 3 Zrotation Xrotation Yrotation
          JOINT rForeArm
          {
            OFFSET -28.1742 -1.7115 0.48768
            CHANNELS 3 Zrotation Xrotation Yrotation
            JOINT rHand
            {
              OFFSET -22.5879 0.773209 7.07136
              CHANNELS 3 Zrotation Xrotation Yrotation
              JOINT rThumb1
              {
                OFFSET -1.2192 -0.487915 3.41376
                CHANNELS 3 Zrotation Xrotation Yrotation
                JOINT rThumb2
                {
                  OFFSET -3.37035 -0.52449 3.41376
                  CHANNELS 3 Zrotation Xrotation Yrotation
                  End Site
                  {
                    OFFSET -1.78271 -1.18214 1.43049
                  }
                }
              }
              JOINT rIndex1
              {
                OFFSET -7.75947 0.938293 5.60832
                CHANNELS 3 Zrotation Xrotation Yrotation
                JOINT rIndex2
                {
                  OFFSET -2.54057 -0.884171 1.56538
                  CHANNELS 3 Zrotation Xrotation Yrotation
                  End Site
                  {
                    OFFSET -1.62519 -0.234802 1.16502
                  }
                }
              }
              JOINT rMid1
              {
                OFFSET -8.24714 1.18213 3.41376
                CHANNELS 3 Zrotation Xrotation Yrotation
                JOINT rMid2
                {
                  OFFSET -3.10165 -0.590103 1.0647
                  CHANNELS 3 Zrotation Xrotation Yrotation
                  End Site
                  {
                    OFFSET -2.48547 -0.328903 0.83742
                  }
                }
              }
              JOINT rRing1
              {
                OFFSET -8.82822 0.546677 1.51678
                CHANNELS 3 Zrotation Xrotation Yrotation
                JOINT rRing2
                {
                  OFFSET -2.60934 -0.819778 -0.0198488
                  CHANNELS 3 Zrotation Xrotation Yrotation
                  End Site
                  {
                    OFFSET -2.33842 -0.294052 0.168128
                  }
                }
              }
              JOINT rPinky1
              {
                OFFSET -8.27202 -0.0477905 -0.4584
                CHANNELS 3 Zrotation Xrotation Yrotation
                JOINT rPinky2
                {
                  OFFSET -1.82734 -0.647385 -0.700984
                  CHANNELS 3 Zrotation Xrotation Yrotation
                  End Site
                  {
                    OFFSET -1.69225 -0.51767 -0.607171
                  }
                }
              }
            }
          }
        }
      }
      JOINT lCollar
      {
        OFFSET 2.68224 19.2634 -4.8768
        CHANNELS 3 Zrotation Xrotation Yrotation
        JOINT lShldr
        {
          OFFSET 8.77824 -1.95073 1.46304
          CHANNELS 3 Zrotation Xrotation Yrotation
          JOINT lForeArm
          {
            OFFSET 28.1742 -1.7115 0.48768
            CHANNELS 3 Zrotation Xrotation Yrotation
            JOINT lHand
            {
              OFFSET 22.5879 0.773209 7.07136
              CHANNELS 3 Zrotation Xrotation Yrotation
              JOINT lThumb1
              {
                OFFSET 1.2192 -0.487915 3.41376
                CHANNELS 3 Zrotation Xrotation Yrotation
                JOINT lThumb2
                {
                  OFFSET 3.37035 -0.52449 3.41376
                  CHANNELS 3 Zrotation Xrotation Yrotation
                  End Site
                  {
                    OFFSET 1.78271 -1.18214 1.43049
                  }
                }
              }
              JOINT lIndex1
              {
                OFFSET 7.75947 0.938293 5.60832
                CHANNELS 3 Zrotation Xrotation Yrotation
                JOINT lIndex2
                {
                  OFFSET 2.54057 -0.884171 1.56538
                  CHANNELS 3 Zrotation Xrotation Yrotation
                  End Site
                  {
                    OFFSET 1.62519 -0.234802 1.16502
                  }
                }
              }
              JOINT lMid1
              {
                OFFSET 8.24714 1.18213 3.41376
                CHANNELS 3 Zrotation Xrotation Yrotation
                JOINT lMid2
                {
                  OFFSET 3.10165 -0.590103 1.0647
                  CHANNELS 3 Zrotation Xrotation Yrotation
                  End Site
                  {
                    OFFSET 2.48547 -0.328903 0.83742
                  }
                }
              }
              JOINT lRing1
              {
                OFFSET 8.82822 0.546677 1.51678
                CHANNELS 3 Zrotation Xrotation Yrotation
                JOINT lRing2
                {
                  OFFSET 2.60934 -0.819778 -0.0198488
                  CHANNELS 3 Zrotation Xrotation Yrotation
                  End Site
                  {
                    OFFSET 2.33842 -0.294052 0.168128
                  }
                }
              }
              JOINT lPinky1
              {
                OFFSET 8.27202 -0.0477905 -0.4584
                CHANNELS 3 Zrotation Xrotation Yrotation
                JOINT lPinky2
                {
                  OFFSET 1.82734 -0.647385 -0.700984
                  CHANNELS 3 Zrotation Xrotation Yrotation
                  End Site
                  {
                    OFFSET 1.69225 -0.51767 -0.607171
                  }
                }
              }
            }
          }
        }
      }
    }
  }
  JOINT rButtock
  {
    OFFSET -8.77824 4.35084 1.2192
    CHANNELS 3 Zrotation Xrotation Yrotation
    JOINT rThigh
    {
      OFFSET 0.0 -1.70687 -2.19456
      CHANNELS 3 Zrotation Xrotation Yrotation
      JOINT rShin
      {
        OFFSET 0.0 -36.8199 0.73152
        CHANNELS 3 Zrotation Xrotation Yrotation
        JOINT rFoot
        {
          OFFSET 0.73152 -45.1104 -5.12064
          CHANNELS 3 Zrotation Xrotation Yrotation
          End Site
          {
            OFFSET -1.1221 -3.69964 12.103
          }
        }
      }
    }
  }
  JOINT lButtock
  {
    OFFSET 8.77824 4.35084 1.2192
    CHANNELS 3 Zrotation Xrotation Yrotation
    JOINT lThigh
    {
      OFFSET 0.0 -1.70687 -2.19456
      CHANNELS 3 Zrotation Xrotation Yrotation
      JOINT lShin
      {
        OFFSET 0.0 -36.8199 0.73152
        CHANNELS 3 Zrotation Xrotation Yrotation
        JOINT lFoot
        {
          OFFSET -0.73152 -45.1104 -5.12064
          CHANNELS 3 Zrotation Xrotation Yrotation
          End Site
          {
            OFFSET 1.1221 -3.69964 12.103
          }
        }
      }
    }
  }
}
MOTION
Frames: 4
Frame Time: 0.00833333
43.33099999999999 80.5776 -2.78812 -167.73 55.0937 -152.023 5.71397 -4.32713 14.7135 -5.77489 -16.1488 3.79319 6.86177 -1.58452 2.77908 -6.84998 21.6587 8.96821 -0.0 0.0 0.0 -0.0 0.0 0.0 0.0 0.0 0.0 0.0 0.0 0.0 0.0 0.0 0.0 -0.0512254 -6.44297 -0.909379 -5.47337e-09 1.64944e-09 -2.172e-09 -9.4363e-09 2.82868e-09 -3.7833e-09 -5.47338e-09 1.64944e-09 -2.17201e-09 7.73091 5.47488 0.417314 -5.47338e-09 1.64944e-09 -2.172e-09 2.90554 0.965183 0.102902 -5.47337e-09 1.64944e-09 -2.172e-09 10.2786 0.731801 0.0259123 -5.47338e-09 1.64944e-09 -2.172e-09 2.22167 -0.733487 -0.20892 0.0 0.0 0.0 0.0 0.0 0.0 0.0 0.0 0.0 0.00868414 2.70848 -0.380926 -3.43161e-09 3.9925e-10 -2.12823e-10 -5.94034e-09 7.0117e-10 -3.48902e-10 -3.43162e-09 3.99252e-10 -2.12822e-10 -7.73091 5.47488 -0.417314 -3.43161e-09 3.99252e-10 -2.12825e-10 -2.90554 0.965183 -0.102902 -3.43162e-09 3.9925e-10 -2.12822e-10 -10.2786 0.731801 -0.0259123 -3.43161e-09 3.99249e-10 -2.12825e-10 -2.22167 -0.733487 0.20892 -2.03217e-16 0.0 -3.88251e-19 20.2451 -11.1097 -13.7497 0.133148 28.0693 0.991298 1.06294 21.501 -0.224257 2.03217e-16 0.0 3.88251e-19 -7.46305 -34.0321 -3.17972 0.00613632 21.3509 -1.39648 0.602968 -18.3414 10.1443
44.043000000000006 80.7143 -3.03162 -167.478 55.3854 -151.959 5.85516 -3.99473 14.5751 -5.59076 -16.1946 3.77369 6.88489 -1.50747 2.79595 -6.98873 21.9261 9.10555 -0.0 0.0 0.0 -0.0 0.0 0.0 0.0 0.0 0.0 0.0 0.0 0.0 0.0 0.0 0.0 -0.0507314 -6.41179 -0.904941 -5.54544e-09 2.49241e-09 -3.4692e-10 -9.57035e-09 4.30195e-09 -6.18857e-10 -5.54544e-09 2.49241e-09 -3.4693e-10 7.73091 5.47488 0.417314 -5.54545e-09 2.49241e-09 -3.46918e-10 2.90554 0.965183 0.102902 -5.54543e-09 2.49241e-09 -3.46922e-10 10.2786 0.731801 0.0259123 -5.54544e-09 2.49241e-09 -3.46915e-10 2.22167 -0.733487 -0.20892 0.0 0.0 0.0 0.0 0.0 0.0 0.0 0.0 0.0 0.0125589 3.22188 -0.453283 -2.61582e-09 -1.36916e-09 -3.87019e-09 -4.54009e-09 -2.364e-09 -6.67701e-09 -2.61582e-09 -1.36915e-09 -3.87019e-09 -7.73091 5.47488 -0.417314 -2.61582e-09 -1.36916e-09 -3.87019e-09 -2.90554 0.965183 -0.102902 -2.61582e-09 -1.36916e-09 -3.87019e-09 -10.2786 0.731801 -0.0259123 -2.61581e-09 -1.36916e-09 -3.87019e-09 -2.22167 -0.733487 0.20892 -2.03217e-16 0.0 -3.88251e-19 18.804 -11.6662 -15.482 0.13546 29.8958 0.966919 0.835773 21.9984 -0.040392 2.03217e-16 0.0 3.88251e-19 -7.30809 -33.024 -3.49621 0.0103059 20.8107 -1.33923 0.921218 -18.5344 10.5752
44.712999999999994 80.8197 -3.285482 -167.238 55.6153 -151.913 5.97036 -3.7152 14.4655 -5.4584 -16.2209 3.7571 6.93174 -1.43262 2.77527 -7.08084 22.2112 9.15959 -0.0 0.0 0.0 -0.0 0.0 0.0 0.0 0.0 0.0 0.0 0.0 0.0 0.0 0.0 0.0 -0.049534 -6.33875 -0.894541 -5.21782e-09 2.60842e-09 7.14712e-10 -9.01034e-09 4.51193e-09 1.22297e-09 -5.21782e-09 2.60843e-09 7.14702e-10 7.73091 5.47488 0.417314 -5.21782e-09 2.60842e-09 7.14718e-10 2.90554 0.965183 0.102902 -5.21781e-09 2.60842e-09 7.14712e-10 10.2786 0.731801 0.0259123 -5.21782e-09 2.60842e-09 7.14718e-10 2.22167 -0.733487 -0.20892 0.0 0.0 0.0 0.0 0.0 0.0 0.0 0.0 0.0 0.0169063 3.70949 -0.522072 -1.8351e-09 -2.15521e-09 -5.66103e-09 -3.19453e-09 -3.72785e-09 -9.77771e-09 -1.83511e-09 -2.15521e-09 -5.66103e-09 -7.73091 5.47488 -0.417314 -1.8351e-09 -2.15521e-09 -5.66103e-09 -2.90554 0.965183 -0.102902 -1.83511e-09 -2.15521e-09 -5.66103e-09 -10.2786 0.731801 -0.0259123 -1.8351e-09 -2.15521e-09 -5.66103e-09 -2.22167 -0.733487 0.20892 -2.03217e-16 0.0 -3.88251e-19 17.3121 -12.1386 -17.1333 0.120646 31.6139 0.948773 0.572604 21.904 0.330631 2.03217e-16 0.0 3.88251e-19 -7.23755 -32.0454 -3.91847 0.014241 20.2995 -1.27744 1.20613 -18.9065 10.8274
45.347999999999985 80.9047 -3.550123 -167.031 55.7839 -151.905 6.07555 -3.50301 14.3989 -5.41139 -16.2233 3.74368 7.02477 -1.35364 2.70526 -7.14182 22.5396 9.1136 -0.0 0.0 0.0 -0.0 0.0 0.0 0.0 0.0 0.0 0.0 0.0 0.0 0.0 0.0 0.0 -0.0468013 -6.16813 -0.870262 -4.17175e-09 1.54901e-09 6.38099e-10 -7.20396e-09 2.68021e-09 1.09329e-09 -4.17175e-09 1.54902e-09 6.38091e-10 7.73091 5.47488 0.417314 -4.17176e-09 1.54901e-09 6.38107e-10 2.90554 0.965183 0.102902 -4.17174e-09 1.54901e-09 6.38101e-10 10.2786 0.731801 0.0259123 -4.17176e-09 1.54901e-09 6.38106e-10 2.22167 -0.733487 -0.20892 0.0 0.0 0.0 0.0 0.0 0.0 0.0 0.0 0.0 0.0216245 4.20862 -0.592539 -1.00469e-09 -1.44548e-09 -4.64313e-09 -1.75404e-09 -2.50174e-09 -8.02255e-09 -1.0047e-09 -1.44548e-09 -4.64313e-09 -7.73091 5.47488 -0.417314 -1.00469e-09 -1.44548e-09 -4.64313e-09 -2.90554 0.965183 -0.102902 -1.0047e-09 -1.44548e-09 -4.64313e-09 -10.2786 0.731801 -0.0259123 -1.00469e-09 -1.44548e-09 -4.64313e-09 -2.22167 -0.733487 0.20892 -2.03217e-16 0.0 -3.88251e-19 15.7763 -12.5022 -18.7136 0.0786687 33.2363 0.941566 0.21798 21.1461 1.16249 2.03217e-16 0.0 3.88251e-19 -7.28351 -31.1245 -4.5223 0.0182387 19.8454 -1.21 1.51099 -19.5121 11.0195
